<mxfile host="app.diagrams.net" modified="2024-02-13T11:45:51.676Z" agent="Mozilla/5.0 (Windows NT 10.0; Win64; x64) AppleWebKit/537.36 (KHTML, like Gecko) Chrome/121.0.0.0 Safari/537.36" etag="QPBKpE-RabYWEX3NVKi0" version="23.1.2" type="google">
  <diagram name="Page-1" id="w3WONPLt00HZsiTDpbQn">
    <mxGraphModel dx="1750" dy="903" grid="1" gridSize="10" guides="1" tooltips="1" connect="1" arrows="1" fold="1" page="1" pageScale="1" pageWidth="850" pageHeight="1100" math="0" shadow="0">
      <root>
        <mxCell id="0" />
        <mxCell id="1" parent="0" />
        <mxCell id="aIBSSjjODmP4X4QRA9E5-1" value="Start" style="rounded=1;whiteSpace=wrap;html=1;strokeWidth=1;perimeterSpacing=0;glass=0;shadow=0;arcSize=50;" parent="1" vertex="1">
          <mxGeometry x="30" y="580" width="95" height="40" as="geometry" />
        </mxCell>
        <mxCell id="aIBSSjjODmP4X4QRA9E5-2" value="Choose Option" style="rhombus;whiteSpace=wrap;html=1;" parent="1" vertex="1">
          <mxGeometry x="380" y="565" width="78.12" height="70" as="geometry" />
        </mxCell>
        <mxCell id="aIBSSjjODmP4X4QRA9E5-3" value="User Interface" style="rounded=0;whiteSpace=wrap;html=1;" parent="1" vertex="1">
          <mxGeometry x="190" y="570" width="120" height="60" as="geometry" />
        </mxCell>
        <mxCell id="aIBSSjjODmP4X4QRA9E5-4" value="" style="endArrow=classic;html=1;rounded=0;exitX=1;exitY=0.5;exitDx=0;exitDy=0;" parent="1" source="aIBSSjjODmP4X4QRA9E5-1" target="aIBSSjjODmP4X4QRA9E5-3" edge="1">
          <mxGeometry width="50" height="50" relative="1" as="geometry">
            <mxPoint x="490" y="960" as="sourcePoint" />
            <mxPoint x="540" y="910" as="targetPoint" />
          </mxGeometry>
        </mxCell>
        <mxCell id="aIBSSjjODmP4X4QRA9E5-5" value="" style="endArrow=classic;html=1;rounded=0;entryX=0;entryY=0.5;entryDx=0;entryDy=0;exitX=1;exitY=0.5;exitDx=0;exitDy=0;" parent="1" source="aIBSSjjODmP4X4QRA9E5-3" target="aIBSSjjODmP4X4QRA9E5-2" edge="1">
          <mxGeometry width="50" height="50" relative="1" as="geometry">
            <mxPoint x="420" y="820" as="sourcePoint" />
            <mxPoint x="467.5" y="770" as="targetPoint" />
          </mxGeometry>
        </mxCell>
        <mxCell id="aIBSSjjODmP4X4QRA9E5-6" value="Travel Agency" style="rounded=0;whiteSpace=wrap;html=1;" parent="1" vertex="1">
          <mxGeometry x="570" y="470" width="120" height="60" as="geometry" />
        </mxCell>
        <mxCell id="aIBSSjjODmP4X4QRA9E5-7" value="Passenger" style="rounded=0;whiteSpace=wrap;html=1;" parent="1" vertex="1">
          <mxGeometry x="810" y="670" width="120" height="60" as="geometry" />
        </mxCell>
        <mxCell id="aIBSSjjODmP4X4QRA9E5-10" value="&lt;font color=&quot;#00cc00&quot;&gt;Option 1&lt;/font&gt;" style="text;html=1;align=center;verticalAlign=middle;resizable=0;points=[];autosize=1;strokeColor=none;fillColor=none;fontStyle=1;labelBackgroundColor=none;labelBorderColor=none;rotation=-30;" parent="1" vertex="1">
          <mxGeometry x="461.56" y="520" width="70" height="30" as="geometry" />
        </mxCell>
        <mxCell id="aIBSSjjODmP4X4QRA9E5-14" value="" style="endArrow=classic;startArrow=classic;html=1;rounded=0;exitX=0;exitY=0.5;exitDx=0;exitDy=0;entryX=1;entryY=0;entryDx=0;entryDy=0;" parent="1" source="aIBSSjjODmP4X4QRA9E5-6" target="aIBSSjjODmP4X4QRA9E5-2" edge="1">
          <mxGeometry width="50" height="50" relative="1" as="geometry">
            <mxPoint x="400" y="580" as="sourcePoint" />
            <mxPoint x="450" y="530" as="targetPoint" />
          </mxGeometry>
        </mxCell>
        <mxCell id="aIBSSjjODmP4X4QRA9E5-17" value="Exit" style="rounded=1;whiteSpace=wrap;html=1;strokeWidth=1;perimeterSpacing=0;glass=0;shadow=0;arcSize=50;" parent="1" vertex="1">
          <mxGeometry x="371.56" y="690" width="95" height="40" as="geometry" />
        </mxCell>
        <mxCell id="aIBSSjjODmP4X4QRA9E5-19" value="" style="endArrow=classic;html=1;rounded=0;entryX=0.5;entryY=0;entryDx=0;entryDy=0;exitX=0.5;exitY=1;exitDx=0;exitDy=0;" parent="1" source="aIBSSjjODmP4X4QRA9E5-2" target="aIBSSjjODmP4X4QRA9E5-17" edge="1">
          <mxGeometry width="50" height="50" relative="1" as="geometry">
            <mxPoint x="400" y="850" as="sourcePoint" />
            <mxPoint x="450" y="800" as="targetPoint" />
          </mxGeometry>
        </mxCell>
        <mxCell id="aIBSSjjODmP4X4QRA9E5-20" value="Stop" style="rounded=1;whiteSpace=wrap;html=1;strokeWidth=1;perimeterSpacing=0;glass=0;shadow=0;arcSize=50;" parent="1" vertex="1">
          <mxGeometry x="30" y="690" width="95" height="40" as="geometry" />
        </mxCell>
        <mxCell id="aIBSSjjODmP4X4QRA9E5-21" value="" style="endArrow=classic;html=1;rounded=0;entryX=1;entryY=0.5;entryDx=0;entryDy=0;exitX=0;exitY=0.5;exitDx=0;exitDy=0;" parent="1" source="aIBSSjjODmP4X4QRA9E5-17" target="aIBSSjjODmP4X4QRA9E5-20" edge="1">
          <mxGeometry width="50" height="50" relative="1" as="geometry">
            <mxPoint x="400" y="850" as="sourcePoint" />
            <mxPoint x="450" y="800" as="targetPoint" />
          </mxGeometry>
        </mxCell>
        <mxCell id="aIBSSjjODmP4X4QRA9E5-23" value="Create Packages" style="rounded=0;whiteSpace=wrap;html=1;" parent="1" vertex="1">
          <mxGeometry x="780" y="390" width="110" height="40" as="geometry" />
        </mxCell>
        <mxCell id="aIBSSjjODmP4X4QRA9E5-31" value="Display Packages" style="whiteSpace=wrap;html=1;shape=mxgraph.basic.document" parent="1" vertex="1">
          <mxGeometry x="980" y="420" width="60" height="70" as="geometry" />
        </mxCell>
        <mxCell id="aIBSSjjODmP4X4QRA9E5-32" value="Display&amp;nbsp;&lt;br&gt;Enrolled Passengers" style="whiteSpace=wrap;html=1;shape=mxgraph.basic.document" parent="1" vertex="1">
          <mxGeometry x="880" y="510" width="70" height="82" as="geometry" />
        </mxCell>
        <mxCell id="aIBSSjjODmP4X4QRA9E5-35" value="&lt;font color=&quot;#ff3333&quot;&gt;Exit&lt;/font&gt;" style="text;html=1;align=center;verticalAlign=middle;resizable=0;points=[];autosize=1;strokeColor=none;fillColor=none;fontStyle=1;rotation=-30;" parent="1" vertex="1">
          <mxGeometry x="481.56" y="535" width="50" height="30" as="geometry" />
        </mxCell>
        <mxCell id="aIBSSjjODmP4X4QRA9E5-42" value="Create Passenger" style="shape=note;whiteSpace=wrap;html=1;backgroundOutline=1;darkOpacity=0.05;" parent="1" vertex="1">
          <mxGeometry x="620" y="580" width="70" height="90" as="geometry" />
        </mxCell>
        <mxCell id="aIBSSjjODmP4X4QRA9E5-45" value="" style="endArrow=classic;html=1;rounded=0;exitX=1;exitY=1;exitDx=0;exitDy=0;entryX=0;entryY=0.444;entryDx=0;entryDy=0;entryPerimeter=0;" parent="1" source="aIBSSjjODmP4X4QRA9E5-2" target="aIBSSjjODmP4X4QRA9E5-42" edge="1">
          <mxGeometry width="50" height="50" relative="1" as="geometry">
            <mxPoint x="610" y="630" as="sourcePoint" />
            <mxPoint x="560" y="700" as="targetPoint" />
          </mxGeometry>
        </mxCell>
        <mxCell id="aIBSSjjODmP4X4QRA9E5-70" value="&lt;h3&gt;Option 2&lt;/h3&gt;" style="edgeLabel;html=1;align=center;verticalAlign=middle;resizable=0;points=[];fontColor=#00CC00;" parent="aIBSSjjODmP4X4QRA9E5-45" vertex="1" connectable="0">
          <mxGeometry x="-0.1631" relative="1" as="geometry">
            <mxPoint as="offset" />
          </mxGeometry>
        </mxCell>
        <mxCell id="aIBSSjjODmP4X4QRA9E5-46" value="" style="endArrow=classic;html=1;rounded=0;exitX=1.029;exitY=0.556;exitDx=0;exitDy=0;exitPerimeter=0;entryX=0;entryY=0.5;entryDx=0;entryDy=0;" parent="1" source="aIBSSjjODmP4X4QRA9E5-42" target="aIBSSjjODmP4X4QRA9E5-7" edge="1">
          <mxGeometry width="50" height="50" relative="1" as="geometry">
            <mxPoint x="610" y="630" as="sourcePoint" />
            <mxPoint x="660" y="580" as="targetPoint" />
          </mxGeometry>
        </mxCell>
        <mxCell id="aIBSSjjODmP4X4QRA9E5-50" value="Select Packages" style="rounded=0;whiteSpace=wrap;html=1;" parent="1" vertex="1">
          <mxGeometry x="1030" y="660" width="110" height="40" as="geometry" />
        </mxCell>
        <mxCell id="aIBSSjjODmP4X4QRA9E5-51" value="" style="endArrow=classic;html=1;rounded=0;entryX=0;entryY=0.5;entryDx=0;entryDy=0;" parent="1" target="aIBSSjjODmP4X4QRA9E5-50" edge="1">
          <mxGeometry width="50" height="50" relative="1" as="geometry">
            <mxPoint x="930" y="700" as="sourcePoint" />
            <mxPoint x="980" y="650" as="targetPoint" />
          </mxGeometry>
        </mxCell>
        <mxCell id="aIBSSjjODmP4X4QRA9E5-52" value="Display&amp;nbsp;&lt;br&gt;Final&lt;br&gt;Details" style="whiteSpace=wrap;html=1;shape=mxgraph.basic.document" parent="1" vertex="1">
          <mxGeometry x="910" y="850" width="70" height="82" as="geometry" />
        </mxCell>
        <mxCell id="aIBSSjjODmP4X4QRA9E5-53" value="Display&amp;nbsp;&lt;br&gt;Enrolled Packages" style="whiteSpace=wrap;html=1;shape=mxgraph.basic.document" parent="1" vertex="1">
          <mxGeometry x="810" y="850" width="70" height="82" as="geometry" />
        </mxCell>
        <mxCell id="aIBSSjjODmP4X4QRA9E5-54" value="" style="curved=1;endArrow=classic;html=1;rounded=0;exitX=0;exitY=0.75;exitDx=0;exitDy=0;entryX=0.642;entryY=0.89;entryDx=0;entryDy=0;entryPerimeter=0;" parent="1" source="aIBSSjjODmP4X4QRA9E5-7" target="aIBSSjjODmP4X4QRA9E5-2" edge="1">
          <mxGeometry width="50" height="50" relative="1" as="geometry">
            <mxPoint x="590" y="650" as="sourcePoint" />
            <mxPoint x="590" y="630" as="targetPoint" />
            <Array as="points">
              <mxPoint x="540" y="780" />
            </Array>
          </mxGeometry>
        </mxCell>
        <mxCell id="aIBSSjjODmP4X4QRA9E5-69" value="&lt;h3&gt;Exit&lt;/h3&gt;" style="edgeLabel;html=1;align=center;verticalAlign=middle;resizable=0;points=[];fontColor=#FF3333;" parent="aIBSSjjODmP4X4QRA9E5-54" vertex="1" connectable="0">
          <mxGeometry x="-0.4881" y="-9" relative="1" as="geometry">
            <mxPoint as="offset" />
          </mxGeometry>
        </mxCell>
        <mxCell id="aIBSSjjODmP4X4QRA9E5-55" value="Passenger&amp;nbsp;&lt;br&gt;Details" style="whiteSpace=wrap;html=1;shape=mxgraph.basic.document" parent="1" vertex="1">
          <mxGeometry x="1010" y="850" width="70" height="82" as="geometry" />
        </mxCell>
        <mxCell id="aIBSSjjODmP4X4QRA9E5-59" value="Choose&lt;br&gt;Packages" style="rhombus;whiteSpace=wrap;html=1;" parent="1" vertex="1">
          <mxGeometry x="1200" y="635" width="90" height="90" as="geometry" />
        </mxCell>
        <mxCell id="aIBSSjjODmP4X4QRA9E5-60" value="" style="endArrow=classic;html=1;rounded=0;entryX=0;entryY=0.5;entryDx=0;entryDy=0;" parent="1" target="aIBSSjjODmP4X4QRA9E5-59" edge="1">
          <mxGeometry width="50" height="50" relative="1" as="geometry">
            <mxPoint x="1140" y="680" as="sourcePoint" />
            <mxPoint x="1130" y="650" as="targetPoint" />
          </mxGeometry>
        </mxCell>
        <mxCell id="aIBSSjjODmP4X4QRA9E5-61" value="Tour Package 1" style="rounded=0;whiteSpace=wrap;html=1;" parent="1" vertex="1">
          <mxGeometry x="1360" y="605" width="100" height="40" as="geometry" />
        </mxCell>
        <mxCell id="aIBSSjjODmP4X4QRA9E5-62" value="Tour Package 2" style="rounded=0;whiteSpace=wrap;html=1;" parent="1" vertex="1">
          <mxGeometry x="1360" y="700" width="100" height="40" as="geometry" />
        </mxCell>
        <mxCell id="aIBSSjjODmP4X4QRA9E5-63" value="" style="endArrow=classic;html=1;rounded=0;entryX=0;entryY=0.5;entryDx=0;entryDy=0;exitX=1;exitY=0.5;exitDx=0;exitDy=0;" parent="1" source="aIBSSjjODmP4X4QRA9E5-59" target="aIBSSjjODmP4X4QRA9E5-61" edge="1">
          <mxGeometry width="50" height="50" relative="1" as="geometry">
            <mxPoint x="1080" y="700" as="sourcePoint" />
            <mxPoint x="1130" y="650" as="targetPoint" />
          </mxGeometry>
        </mxCell>
        <mxCell id="aIBSSjjODmP4X4QRA9E5-82" value="Option 1" style="edgeLabel;html=1;align=center;verticalAlign=middle;resizable=0;points=[];" parent="aIBSSjjODmP4X4QRA9E5-63" vertex="1" connectable="0">
          <mxGeometry x="0.0491" relative="1" as="geometry">
            <mxPoint y="-1" as="offset" />
          </mxGeometry>
        </mxCell>
        <mxCell id="aIBSSjjODmP4X4QRA9E5-64" value="" style="endArrow=classic;html=1;rounded=0;entryX=0;entryY=0.5;entryDx=0;entryDy=0;exitX=1;exitY=0.5;exitDx=0;exitDy=0;" parent="1" source="aIBSSjjODmP4X4QRA9E5-59" target="aIBSSjjODmP4X4QRA9E5-62" edge="1">
          <mxGeometry width="50" height="50" relative="1" as="geometry">
            <mxPoint x="1080" y="700" as="sourcePoint" />
            <mxPoint x="1130" y="650" as="targetPoint" />
          </mxGeometry>
        </mxCell>
        <mxCell id="aIBSSjjODmP4X4QRA9E5-83" value="Option 2" style="edgeLabel;html=1;align=center;verticalAlign=middle;resizable=0;points=[];" parent="aIBSSjjODmP4X4QRA9E5-64" vertex="1" connectable="0">
          <mxGeometry x="-0.0807" y="1" relative="1" as="geometry">
            <mxPoint as="offset" />
          </mxGeometry>
        </mxCell>
        <mxCell id="aIBSSjjODmP4X4QRA9E5-67" value="" style="endArrow=classic;html=1;rounded=0;exitX=0.5;exitY=0;exitDx=0;exitDy=0;entryX=0.5;entryY=1;entryDx=0;entryDy=0;" parent="1" source="aIBSSjjODmP4X4QRA9E5-59" target="aIBSSjjODmP4X4QRA9E5-59" edge="1">
          <mxGeometry width="50" height="50" relative="1" as="geometry">
            <mxPoint x="1250" y="635" as="sourcePoint" />
            <mxPoint x="1230" y="760" as="targetPoint" />
            <Array as="points">
              <mxPoint x="1245" y="620" />
              <mxPoint x="1260" y="620" />
              <mxPoint x="1280" y="620" />
              <mxPoint x="1280" y="670" />
              <mxPoint x="1280" y="740" />
              <mxPoint x="1260" y="740" />
              <mxPoint x="1245" y="740" />
            </Array>
          </mxGeometry>
        </mxCell>
        <mxCell id="aIBSSjjODmP4X4QRA9E5-68" value="Invalid Number" style="edgeLabel;html=1;align=center;verticalAlign=middle;resizable=0;points=[];fontStyle=1" parent="aIBSSjjODmP4X4QRA9E5-67" vertex="1" connectable="0">
          <mxGeometry x="-0.6628" y="3" relative="1" as="geometry">
            <mxPoint as="offset" />
          </mxGeometry>
        </mxCell>
        <mxCell id="aIBSSjjODmP4X4QRA9E5-71" value="" style="endArrow=classic;startArrow=classic;html=1;rounded=0;exitX=0.5;exitY=1;exitDx=0;exitDy=0;entryX=0.396;entryY=-0.046;entryDx=0;entryDy=0;entryPerimeter=0;" parent="1" source="aIBSSjjODmP4X4QRA9E5-7" target="aIBSSjjODmP4X4QRA9E5-53" edge="1">
          <mxGeometry width="50" height="50" relative="1" as="geometry">
            <mxPoint x="990" y="670" as="sourcePoint" />
            <mxPoint x="1040" y="620" as="targetPoint" />
          </mxGeometry>
        </mxCell>
        <mxCell id="aIBSSjjODmP4X4QRA9E5-72" value="" style="endArrow=classic;startArrow=classic;html=1;rounded=0;exitX=0.575;exitY=1.015;exitDx=0;exitDy=0;entryX=0.5;entryY=0;entryDx=0;entryDy=0;entryPerimeter=0;exitPerimeter=0;" parent="1" source="aIBSSjjODmP4X4QRA9E5-7" target="aIBSSjjODmP4X4QRA9E5-52" edge="1">
          <mxGeometry width="50" height="50" relative="1" as="geometry">
            <mxPoint x="880" y="740" as="sourcePoint" />
            <mxPoint x="848" y="856" as="targetPoint" />
          </mxGeometry>
        </mxCell>
        <mxCell id="aIBSSjjODmP4X4QRA9E5-73" value="" style="endArrow=classic;startArrow=classic;html=1;rounded=0;exitX=0.68;exitY=1.001;exitDx=0;exitDy=0;entryX=0.5;entryY=0;entryDx=0;entryDy=0;entryPerimeter=0;exitPerimeter=0;" parent="1" source="aIBSSjjODmP4X4QRA9E5-7" target="aIBSSjjODmP4X4QRA9E5-55" edge="1">
          <mxGeometry width="50" height="50" relative="1" as="geometry">
            <mxPoint x="890" y="750" as="sourcePoint" />
            <mxPoint x="858" y="866" as="targetPoint" />
          </mxGeometry>
        </mxCell>
        <mxCell id="aIBSSjjODmP4X4QRA9E5-74" value="Confirm" style="rounded=1;whiteSpace=wrap;html=1;arcSize=50;" parent="1" vertex="1">
          <mxGeometry x="1500" y="655" width="80" height="35" as="geometry" />
        </mxCell>
        <mxCell id="aIBSSjjODmP4X4QRA9E5-75" value="" style="endArrow=classic;html=1;rounded=0;entryX=0;entryY=0;entryDx=0;entryDy=0;exitX=1;exitY=0.5;exitDx=0;exitDy=0;" parent="1" source="aIBSSjjODmP4X4QRA9E5-61" target="aIBSSjjODmP4X4QRA9E5-74" edge="1">
          <mxGeometry width="50" height="50" relative="1" as="geometry">
            <mxPoint x="1060" y="670" as="sourcePoint" />
            <mxPoint x="1110" y="620" as="targetPoint" />
          </mxGeometry>
        </mxCell>
        <mxCell id="aIBSSjjODmP4X4QRA9E5-76" value="" style="endArrow=classic;html=1;rounded=0;entryX=0;entryY=1;entryDx=0;entryDy=0;exitX=1;exitY=0.5;exitDx=0;exitDy=0;" parent="1" source="aIBSSjjODmP4X4QRA9E5-62" target="aIBSSjjODmP4X4QRA9E5-74" edge="1">
          <mxGeometry width="50" height="50" relative="1" as="geometry">
            <mxPoint x="1060" y="670" as="sourcePoint" />
            <mxPoint x="1110" y="620" as="targetPoint" />
          </mxGeometry>
        </mxCell>
        <mxCell id="aIBSSjjODmP4X4QRA9E5-78" value="" style="curved=1;endArrow=classic;html=1;rounded=0;exitX=0.5;exitY=1;exitDx=0;exitDy=0;entryX=1;entryY=0.75;entryDx=0;entryDy=0;" parent="1" source="aIBSSjjODmP4X4QRA9E5-74" target="aIBSSjjODmP4X4QRA9E5-7" edge="1">
          <mxGeometry width="50" height="50" relative="1" as="geometry">
            <mxPoint x="1230" y="890" as="sourcePoint" />
            <mxPoint x="930" y="700" as="targetPoint" />
            <Array as="points">
              <mxPoint x="1550" y="750" />
              <mxPoint x="1400" y="820" />
              <mxPoint x="1160" y="820" />
            </Array>
          </mxGeometry>
        </mxCell>
        <mxCell id="aIBSSjjODmP4X4QRA9E5-85" value="Successful Booking" style="edgeLabel;html=1;align=center;verticalAlign=middle;resizable=0;points=[];" parent="aIBSSjjODmP4X4QRA9E5-78" vertex="1" connectable="0">
          <mxGeometry x="-0.0285" relative="1" as="geometry">
            <mxPoint x="-1" as="offset" />
          </mxGeometry>
        </mxCell>
        <mxCell id="aIBSSjjODmP4X4QRA9E5-79" value="" style="endArrow=classic;startArrow=classic;html=1;rounded=0;exitX=1;exitY=0.5;exitDx=0;exitDy=0;entryX=0;entryY=0.5;entryDx=0;entryDy=0;entryPerimeter=0;" parent="1" source="aIBSSjjODmP4X4QRA9E5-6" target="aIBSSjjODmP4X4QRA9E5-31" edge="1">
          <mxGeometry width="50" height="50" relative="1" as="geometry">
            <mxPoint x="800" y="650" as="sourcePoint" />
            <mxPoint x="850" y="600" as="targetPoint" />
          </mxGeometry>
        </mxCell>
        <mxCell id="aIBSSjjODmP4X4QRA9E5-80" value="" style="endArrow=classic;startArrow=classic;html=1;rounded=0;exitX=1;exitY=0.75;exitDx=0;exitDy=0;entryX=0;entryY=0.5;entryDx=0;entryDy=0;entryPerimeter=0;" parent="1" source="aIBSSjjODmP4X4QRA9E5-6" target="aIBSSjjODmP4X4QRA9E5-32" edge="1">
          <mxGeometry width="50" height="50" relative="1" as="geometry">
            <mxPoint x="800" y="650" as="sourcePoint" />
            <mxPoint x="850" y="600" as="targetPoint" />
          </mxGeometry>
        </mxCell>
        <mxCell id="aIBSSjjODmP4X4QRA9E5-81" value="" style="endArrow=classic;startArrow=classic;html=1;rounded=0;exitX=1;exitY=0.25;exitDx=0;exitDy=0;entryX=0;entryY=0.5;entryDx=0;entryDy=0;" parent="1" source="aIBSSjjODmP4X4QRA9E5-6" target="aIBSSjjODmP4X4QRA9E5-23" edge="1">
          <mxGeometry width="50" height="50" relative="1" as="geometry">
            <mxPoint x="780" y="630" as="sourcePoint" />
            <mxPoint x="830" y="580" as="targetPoint" />
          </mxGeometry>
        </mxCell>
      </root>
    </mxGraphModel>
  </diagram>
</mxfile>
